<svg xmlns="http://www.w3.org/2000/svg" width="1200" height="1200" viewBox="0 0 1200 1200">
<path fill="#999" fill-opacity="0.9" d="M1114.286 0H85.7C38.375 0 0 38.4 0 85.714V214.14c0 47.3 38.4 85.7 85.7 85.7 47.34 0 85.714-38.375 85.714-85.713V60h171.43v154.14c0 47.3 38.4 85.7 85.7 85.7 47.338 0 85.713-38.375 85.713-85.713V60h171.428v154.14c0 47.3 38.4 85.7 85.7 85.7 47.34 0 85.714-38.375 85.714-85.713V60h171.428v154.14c0 47.3 38.4 85.7 85.7 85.7 47.34 0 85.714-38.374 85.714-85.713V85.714C1200 38.4 1161.6 0 1114.3 0zM275.893 531.777c-52.29 0-92.61 40.95-92.61 93.24s40.32 93.2 92.6 93.24c52.29 0 93.24-40.95 93.24-93.24.01-52.317-40.923-93.217-93.223-93.24z"/>
<path fill="#999" fill-opacity="0.7" d="M1114.286 339.855c-32.104 0-62.368-11.95-85.715-33.75-23.347 21.798-53.61 33.75-85.713 33.7-32.104 0-62.368-11.95-85.715-33.748-23.348 21.797-53.612 33.75-85.715 33.75s-62.367-11.952-85.715-33.75c-23.347 21.797-53.61 33.75-85.714 33.75-32.102 0-62.367-11.953-85.714-33.75-23.347 21.797-53.613 33.75-85.714 33.75-32.102 0-62.367-11.953-85.714-33.75-23.348 21.797-53.612 33.75-85.714 33.75s-62.367-11.953-85.714-33.75c-23.347 21.797-53.613 33.75-85.714 33.7-32.104 0-62.366-11.96-85.714-33.76V1200l343-238.67h771.188c47.393 0 85.812-38.42 85.812-85.812V306.094c-23.348 21.806-53.6 33.806-85.7 33.76zM275.893 786.93c-35.28 0-67.41-11.34-93.24-30.24v115.29c0 24.57-15.75 39.062-34.65 39.062-21.42 0-34.65-16.38-34.65-39.06V503.426c0-22.05 15.12-38.43 34.65-38.43 14.49 0 27.1 6.9 31.5 29.61 25.83-19.53 59.22-32.13 96.39-32.13 90.09 0 163.2 72.5 163.2 162.5C439.063 714.5 366 786.9 275.9 786.93zm385.55.63c-90.722 0-163.172-72.45-163.172-163.17 0-89.462 72.45-161.913 163.173-161.913 89.46 0 161.9 72.5 161.9 161.912.01 90.71-72.443 163.21-161.943 163.21zm321.927 0c-59.852 0-102.062-31.5-102.062-63 0-16.38 12.602-29.61 31.5-29.61 27.722 0 38.4 28.4 73.1 28.35 23.94 0 34.65-12.6 34.65-25.2 0-11.97-8.82-25.198-41.58-42.21l-29.61-15.12c-48.51-24.568-64.89-52.92-64.89-90.09 0-44.73 40.32-87.57 105.21-87.57 68.04 0 95.1 41.6 95.1 60.5 0 15.75-11.97 28.35-30.87 28.35-25.2 0-40.318-22.05-71.82-22.05-16.38 0-24.57 11.34-24.57 21.4 0 13.2 6.9 20.2 34 35.91l7.562 4.41c10.08 6.3 22.7 11.3 33.4 17.64 47.88 25.8 59.9 56.7 59.9 88.2-.03 45.33-35.89 90.13-108.99 90.09z"/>
<path fill="#999" fill-opacity="0.7" d="M661.443 532.408c-52.29 0-93.24 40.95-93.24 91.98 0 52.3 41 93.2 93.2 93.24 51.03 0 91.98-40.95 91.98-93.24.042-50.988-40.883-91.988-91.983-91.98z"/>
</svg>