<svg style="display: none;"><symbol viewBox="14.906 213.047 247.219 172.828" id="shape-delete"><title>delete</title> <g> <g> <path d="M262.125,385.875H101.391l-86.484-86.344l86.484-86.484h160.734V385.875z M248.203,372.094V226.969H107.438
			l-72.562,72.562l72.562,72.562H248.203z M216.844,333.141l-9.422,9.562l-33.75-33.75l-33.75,33.75l-9.422-9.562l33.609-33.609
			l-33.609-33.75l9.422-9.562l33.75,33.75l33.75-33.75l9.422,9.562l-33.609,33.75L216.844,333.141z"/> </g> </g> </symbol><symbol viewBox="0 0 1024 1024" id="shape-woocommerce-pos"><title>woocommerce-pos</title>  <path d="M950.856,0C948.052,0,76.288,0,73.14,0C32.744,0-0.004,32.746-0.004,73.144v109.59c0,40.396,32.746,73.144,73.144,73.144
	s73.144-32.748,73.144-73.144h-0.002V51.2h146.286v131.534c0,40.396,32.749,73.144,73.144,73.144
	c40.396,0,73.144-32.748,73.144-73.144l0,0V51.2H585.14v131.534c0,40.396,32.746,73.144,73.145,73.144
	c40.397,0,73.144-32.748,73.144-73.144V51.2h146.286v131.534c0,40.396,32.746,73.144,73.144,73.144
	c40.398,0,73.145-32.746,73.145-73.144V73.144C1024.002,32.748,991.254,0,950.858,0H950.856z M235.43,453.784
	c-44.622,0-79.028,34.943-79.028,79.563s34.406,79.566,79.028,79.566c44.622,0,79.566-34.944,79.566-79.566
	C314.996,488.729,280.052,453.784,235.43,453.784L235.43,453.784z M950.856,290.01c-27.395,0-53.223-10.198-73.145-28.798
	c-19.924,18.6-45.75,28.798-73.144,28.798c-27.395,0-53.223-10.198-73.145-28.798c-19.924,18.6-45.75,28.798-73.144,28.798
	c-27.395,0-53.22-10.198-73.145-28.798c-19.924,18.6-45.748,28.798-73.144,28.798c-27.396,0-53.22-10.2-73.145-28.798
	c-19.924,18.6-45.75,28.798-73.144,28.798s-53.22-10.2-73.144-28.798c-19.924,18.6-45.748,28.798-73.144,28.798
	s-53.22-10.2-73.144-28.798c-19.924,18.6-45.75,28.798-73.144,28.798c-27.394,0-53.22-10.206-73.144-28.808v762.8l292.692-203.664
	h658.08c40.442,0,73.227-32.784,73.227-73.226V261.204c-19.924,18.604-45.746,28.808-73.145,28.808L950.856,290.01z M235.43,671.514
	c-30.106,0-57.524-9.678-79.566-25.804v98.38c0,20.966-13.44,33.332-29.568,33.332c-18.278,0-29.568-13.978-29.568-33.332v-314.5
	c0-18.816,12.902-32.794,29.568-32.794c12.364,0,23.118,5.914,26.88,25.269c22.042-16.667,50.534-27.418,82.254-27.418
	c76.877,0,139.238,61.826,139.238,138.704c0,76.34-62.362,138.164-139.24,138.164H235.43z M564.432,672.052
	c-77.416,0-139.239-61.821-139.239-139.239c0-76.341,61.823-138.165,139.239-138.165c76.34,0,138.164,61.824,138.164,138.165
	C702.596,610.226,640.774,672.052,564.432,672.052z M839.142,672.052c-51.073,0-87.092-26.88-87.092-53.76
	c0-13.978,10.754-25.264,26.88-25.264c23.654,0,32.794,24.191,62.362,24.191c20.428,0,29.568-10.752,29.568-21.504
	c0-10.214-7.526-21.504-35.482-36.02l-25.268-12.902c-41.396-20.966-55.374-45.158-55.374-76.878
	c0-38.168,34.405-74.726,89.779-74.726c58.062,0,81.179,35.482,81.179,51.608c0,13.44-10.217,24.192-26.343,24.192
	c-21.504,0-34.405-18.816-61.285-18.816c-13.979,0-20.967,9.678-20.967,18.278c0,11.29,5.914,17.202,29.03,30.642l6.452,3.762
	c8.602,5.377,19.354,9.677,28.494,15.055c40.857,22.042,51.074,48.384,51.074,75.264c-0.004,38.706-30.648,76.876-93.009,76.876
	V672.052z M564.432,454.322c-44.619,0-79.563,34.943-79.563,78.49c0,44.619,34.944,79.563,79.563,79.563
	c43.544,0,78.49-34.944,78.49-79.565c0.002-43.547-34.941-78.49-78.49-78.49V454.322z"/> </symbol></svg>